<svg width="45" height="44" viewBox="0 0 45 44" fill="none" xmlns="http://www.w3.org/2000/svg">
<path d="M36.0316 14.3246L42.5369 20.8298C43.1754 21.4683 43.177 22.5348 42.5094 23.1743L36.0061 29.6777C34.9643 30.7481 33.1667 30 33.1667 28.51V26.3333C33.1667 25.5049 32.4951 24.8333 31.6667 24.8333H17.3333C15.7739 24.8333 14.5 23.5595 14.5 22C14.5 20.4405 15.7739 19.1667 17.3333 19.1667H31.6667C32.4951 19.1667 33.1667 18.4951 33.1667 17.6667V15.4905V15.49H33.6667L36.0316 14.3246ZM36.0316 14.3246C36.0308 14.3237 36.0299 14.3228 36.029 14.3219L36.0316 14.3246ZM7.66667 6.16667H19.6667C21.2261 6.16667 22.5 4.89281 22.5 3.33333C22.5 1.77386 21.2261 0.5 19.6667 0.5H5.66667C2.82386 0.5 0.5 2.82386 0.5 5.66667V38.3333C0.5 41.1761 2.82386 43.5 5.66667 43.5H19.6667C21.2261 43.5 22.5 42.2261 22.5 40.6667C22.5 39.1072 21.2261 37.8333 19.6667 37.8333H7.66667C6.83824 37.8333 6.16667 37.1618 6.16667 36.3333V7.66667C6.16667 6.83824 6.83824 6.16667 7.66667 6.16667Z" fill="#3D4498" stroke="#3D4498"/>
<path d="M14 20C14 18.8954 14.8954 18 16 18H30C31.1046 18 32 17.1046 32 16V15C32 13.8954 32.8954 13 34 13H35.1716C35.702 13 36.2107 13.2107 36.5858 13.5858L43.5858 20.5858C44.3668 21.3668 44.3668 22.6332 43.5858 23.4142L36.5858 30.4142C36.2107 30.7893 35.702 31 35.1716 31H34C32.8954 31 32 30.1046 32 29V28C32 26.8954 31.1046 26 30 26H16C14.8954 26 14 25.1046 14 24V20Z" fill="#F4C700"/>
</svg>
